<?xml version="1.0" encoding="utf-8"?>
<svg xmlns="http://www.w3.org/2000/svg" width="512" height="512" viewBox="0 0 108 108">
  <rect width="108" height="108" fill="#0A1929"/>
  
  <g transform="translate(54, 54)">
    <!-- HIDDEN EDGES -->
    <line x1="-6" y1="-26" x2="-6" y2="0" stroke="#B8E8F8" stroke-width="2.5" stroke-linecap="round" opacity="0.35"/>
    <line x1="-6" y1="0" x2="22" y2="10" stroke="#B8E8F8" stroke-width="2.5" stroke-linecap="round" opacity="0.35"/>
    <line x1="-6" y1="0" x2="-22" y2="16" stroke="#B8E8F8" stroke-width="2.5" stroke-linecap="round" opacity="0.35"/>
    
    <!-- HIDDEN VERTEX - solid color matching hidden edge appearance, drawn on top -->
    <circle cx="-6" cy="0" r="1.25" fill="#476171"/>
    
    <!-- TOP FACE -->
    <line x1="-6" y1="-26" x2="22" y2="-16" stroke="#B8E8F8" stroke-width="2.5" stroke-linecap="round"/>
    <line x1="22" y1="-16" x2="6" y2="0" stroke="#B8E8F8" stroke-width="2.5" stroke-linecap="round"/>
    <line x1="6" y1="0" x2="-22" y2="-10" stroke="#B8E8F8" stroke-width="2.5" stroke-linecap="round"/>
    <line x1="-22" y1="-10" x2="-6" y2="-26" stroke="#B8E8F8" stroke-width="2.5" stroke-linecap="round"/>
    
    <!-- VERTICAL EDGES -->
    <line x1="22" y1="-16" x2="22" y2="10" stroke="#B8E8F8" stroke-width="2.5" stroke-linecap="round"/>
    <line x1="-22" y1="-10" x2="-22" y2="16" stroke="#B8E8F8" stroke-width="2.5" stroke-linecap="round"/>
    <line x1="6" y1="0" x2="6" y2="26" stroke="#B8E8F8" stroke-width="2.5" stroke-linecap="round"/>
    
    <!-- BOTTOM FRONT EDGES -->
    <line x1="22" y1="10" x2="6" y2="26" stroke="#B8E8F8" stroke-width="2.5" stroke-linecap="round"/>
    <line x1="-22" y1="16" x2="6" y2="26" stroke="#B8E8F8" stroke-width="2.5" stroke-linecap="round"/>
    
    <!-- VISIBLE VERTEX DOTS -->
    <circle cx="-6" cy="-26" r="1.25" fill="#B8E8F8"/>
    <circle cx="22" cy="-16" r="1.25" fill="#B8E8F8"/>
    <circle cx="-22" cy="-10" r="1.25" fill="#B8E8F8"/>
    <circle cx="6" cy="0" r="1.25" fill="#B8E8F8"/>
    <circle cx="22" cy="10" r="1.25" fill="#B8E8F8"/>
    <circle cx="-22" cy="16" r="1.25" fill="#B8E8F8"/>
    <circle cx="6" cy="26" r="1.25" fill="#B8E8F8"/>
    
    <!-- ICE LIGHT SCATTER - more sparkles -->
    <!-- Top face -->
    <circle cx="2" cy="-14" r="0.9" fill="#FFFFFF" opacity="0.65"/>
    <circle cx="-8" cy="-16" r="0.6" fill="#FFFFFF" opacity="0.5"/>
    <circle cx="10" cy="-10" r="0.5" fill="#FFFFFF" opacity="0.45"/>
    <circle cx="-2" cy="-8" r="0.4" fill="#FFFFFF" opacity="0.35"/>
    <circle cx="6" cy="-18" r="0.5" fill="#FFFFFF" opacity="0.4"/>
    
    <!-- Left face -->
    <circle cx="-16" cy="0" r="0.8" fill="#FFFFFF" opacity="0.55"/>
    <circle cx="-12" cy="6" r="0.5" fill="#FFFFFF" opacity="0.4"/>
    <circle cx="-18" cy="10" r="0.6" fill="#FFFFFF" opacity="0.45"/>
    <circle cx="-14" cy="-4" r="0.4" fill="#FFFFFF" opacity="0.35"/>
    <circle cx="-10" cy="12" r="0.45" fill="#FFFFFF" opacity="0.38"/>
    
    <!-- Right face -->
    <circle cx="16" cy="0" r="0.7" fill="#FFFFFF" opacity="0.5"/>
    <circle cx="12" cy="6" r="0.5" fill="#FFFFFF" opacity="0.4"/>
    <circle cx="18" cy="4" r="0.4" fill="#FFFFFF" opacity="0.35"/>
    <circle cx="10" cy="12" r="0.5" fill="#FFFFFF" opacity="0.42"/>
    <circle cx="14" cy="8" r="0.35" fill="#FFFFFF" opacity="0.32"/>
  </g>
</svg>
